<svg width="237" height="244" viewBox="0 0 237 244" fill="none" xmlns="http://www.w3.org/2000/svg">
<path d="M151.817 1.97147L162.74 73.5791L162.81 74.0373L163.272 74.0023L235.229 68.5522L186.277 121.899L185.966 122.238L186.278 122.577L235.27 175.681L163.306 170.589L162.845 170.557L162.776 171.013L151.906 242.678L111.123 182.988L110.861 182.604L110.459 182.837L47.9189 219.1L69.0215 149.755L69.1559 149.314L68.7265 149.144L1.6036 122.699L68.7084 95.9187L69.1357 95.7482L69.0013 95.3083L47.8461 26.0651L110.415 62.0176L110.817 62.2485L111.078 61.8653L151.817 1.97147Z" stroke="#81A8CB"/>
</svg>
